<svg width="71" height="21" xmlns="http://www.w3.org/2000/svg" xmlns:xlink="http://www.w3.org/1999/xlink" xmlns:svgjs="http://svgjs.com/svgjs" viewBox="0 0.111 71 20.778" fill="#588b8b"><svg xmlns="http://www.w3.org/2000/svg" width="71" height="21" viewBox="0 0.5 70.051 20.5"><path paint-order="stroke fill markers" fill-rule="evenodd" d="M0 21h1.55v-6.48a6.657 6.657 0 0 0 2.18 1.784 5.87 5.87 0 0 0 2.645.598 5.874 5.874 0 0 0 4.364-1.855 6.224 6.224 0 0 0 1.81-4.513 6.11 6.11 0 0 0-1.826-4.453 5.95 5.95 0 0 0-4.393-1.85 5.62 5.62 0 0 0-2.666.632A6.223 6.223 0 0 0 1.55 6.757V4.542H0V21zM8.589 6.363a4.662 4.662 0 0 1 1.74 1.787 4.887 4.887 0 0 1-.005 4.867 4.749 4.749 0 0 1-1.752 1.809 4.552 4.552 0 0 1-2.348.647 4.86 4.86 0 0 1-2.415-.642 4.473 4.473 0 0 1-1.756-1.736 4.96 4.96 0 0 1-.613-2.467 4.797 4.797 0 0 1 1.375-3.496 4.554 4.554 0 0 1 3.387-1.405 4.665 4.665 0 0 1 2.387.636zm1.376 9.365l-.003.003c.324.44.73.812 1.194 1.097a5.6 5.6 0 0 0 2.943.715 5.546 5.546 0 0 0 2.93-.715 4.438 4.438 0 0 0 1.748-1.976c.387-.844.582-2.096.583-3.755v-6.7h-1.585v6.41c0 1.506-.078 2.492-.233 2.958a3.2 3.2 0 0 1-1.248 1.645c-.651.43-1.42.65-2.202.627a3.863 3.863 0 0 1-2.237-.643 3.066 3.066 0 0 1-.75-.759l-1.14 1.093zM35.96.5h1.55v4.475h2.459v1.34H37.51v10.71h-1.55V6.315h-2.116v-1.34h2.116V.5zM21.425 4.4h1.55v2.215a6.222 6.222 0 0 1 2.113-1.894 5.62 5.62 0 0 1 2.667-.63 5.95 5.95 0 0 1 4.393 1.849 6.11 6.11 0 0 1 1.825 4.452 6.224 6.224 0 0 1-1.809 4.513 6.091 6.091 0 0 1-7.01 1.257 6.657 6.657 0 0 1-2.179-1.783v6.48h-1.55V4.4zm6.202 1.185A4.554 4.554 0 0 0 24.24 6.99a4.799 4.799 0 0 0-1.375 3.496 4.961 4.961 0 0 0 .613 2.467 4.472 4.472 0 0 0 1.757 1.737 4.86 4.86 0 0 0 2.414.642 4.553 4.553 0 0 0 2.348-.647 4.75 4.75 0 0 0 1.752-1.809c.867-1.506.87-3.36.005-4.868a4.669 4.669 0 0 0-4.127-2.423zm23.644 6.867l1.306.687a7.126 7.126 0 0 1-1.485 2.038c-.55.51-1.194.91-1.896 1.18-.762.28-1.57.416-2.383.404-1.966 0-3.503-.645-4.612-1.933a6.519 6.519 0 0 1-1.662-4.37 6.441 6.441 0 0 1 1.407-4.086 5.756 5.756 0 0 1 4.778-2.282 5.945 5.945 0 0 1 4.922 2.337 6.525 6.525 0 0 1 1.33 4.12H42.134a4.906 4.906 0 0 0 1.341 3.442 4.28 4.28 0 0 0 3.205 1.343c.611 0 1.218-.108 1.79-.32a4.712 4.712 0 0 0 1.481-.85 7.24 7.24 0 0 0 1.32-1.71zm0-3.245a5.147 5.147 0 0 0-.904-1.982 4.28 4.28 0 0 0-1.57-1.197 4.807 4.807 0 0 0-2.05-.454 4.419 4.419 0 0 0-3.05 1.141 5.156 5.156 0 0 0-1.408 2.492h8.982zm3.464-4.233h1.55v2.16a6.484 6.484 0 0 1 2.06-1.855c.755-.41 1.6-.622 2.46-.615a4.272 4.272 0 0 1 2.397.687 4.093 4.093 0 0 1 1.545 1.85c.332.775.499 1.982.499 3.621v6.202h-1.551v-5.748a14.17 14.17 0 0 0-.173-2.78 3.054 3.054 0 0 0-1.033-1.8 3.123 3.123 0 0 0-1.994-.603 3.824 3.824 0 0 0-2.52.93 4.358 4.358 0 0 0-1.468 2.304 16.004 16.004 0 0 0-.222 3.278v4.42h-1.55V4.974zm13.954 9.02c.362-.006.711.138.963.398a1.384 1.384 0 0 1 0 1.944 1.35 1.35 0 0 1-1.927 0 1.384 1.384 0 0 1 0-1.944c.253-.26.602-.404.964-.398z"/></svg></svg>